<svg width="18" height="20" viewBox="0 0 18 20" fill="none" xmlns="http://www.w3.org/2000/svg">
<path d="M13 19.85C11.6167 19.85 10.4377 19.3623 9.463 18.387C8.48833 17.4117 8.00067 16.2327 8 14.85C7.99933 13.4673 8.487 12.2883 9.463 11.313C10.439 10.3377 11.618 9.85 13 9.85C14.382 9.85 15.5613 10.3377 16.538 11.313C17.5147 12.2883 18.002 13.4673 18 14.85C17.998 16.2327 17.5103 17.412 16.537 18.388C15.5637 19.364 14.3847 19.8513 13 19.85ZM0 8.95V4.225C0 3.80833 0.121 3.43333 0.363 3.1C0.605 2.76667 0.917334 2.525 1.3 2.375L7.3 0.125C7.53333 0.0416667 7.76667 0 8 0C8.23333 0 8.46667 0.0416667 8.7 0.125L14.7 2.375C15.0833 2.525 15.396 2.76667 15.638 3.1C15.88 3.43333 16.0007 3.80833 16 4.225V7.275C16 7.55833 15.875 7.78767 15.625 7.963C15.375 8.13833 15.1083 8.184 14.825 8.1C14.525 8.01667 14.225 7.95433 13.925 7.913C13.625 7.87167 13.3167 7.85067 13 7.85C11.0667 7.85 9.41667 8.53333 8.05 9.9C6.68333 11.2667 6 12.9167 6 14.85C6 15.3833 6.06267 15.9043 6.188 16.413C6.31333 16.9217 6.49233 17.434 6.725 17.95C6.875 18.2667 6.82933 18.55 6.588 18.8C6.34667 19.05 6.06733 19.1 5.75 18.95C5.05 18.5833 4.40833 18.1333 3.825 17.6C3.24167 17.0667 2.725 16.4833 2.275 15.85C1.55833 14.8667 1 13.7873 0.6 12.612C0.2 11.4367 0 10.216 0 8.95ZM13 14.85C13.4167 14.85 13.771 14.7043 14.063 14.413C14.355 14.1217 14.5007 13.7673 14.5 13.35C14.4993 12.9327 14.3537 12.5787 14.063 12.288C13.7723 11.9973 13.418 11.8513 13 11.85C12.582 11.8487 12.228 11.9947 11.938 12.288C11.648 12.5813 11.502 12.9353 11.5 13.35C11.498 13.7647 11.644 14.119 11.938 14.413C12.232 14.707 12.586 14.8527 13 14.85ZM13 17.85C13.4167 17.85 13.8083 17.7707 14.175 17.612C14.5417 17.4533 14.8667 17.2243 15.15 16.925C15.2333 16.825 15.2667 16.7127 15.25 16.588C15.2333 16.4633 15.1583 16.3673 15.025 16.3C14.7083 16.15 14.3793 16.0377 14.038 15.963C13.6967 15.8883 13.3507 15.8507 13 15.85C12.6493 15.8493 12.3037 15.887 11.963 15.963C11.6223 16.039 11.293 16.1513 10.975 16.3C10.8417 16.3667 10.7667 16.4627 10.75 16.588C10.7333 16.7133 10.7667 16.8257 10.85 16.925C11.1333 17.225 11.4583 17.4543 11.825 17.613C12.1917 17.7717 12.5833 17.8507 13 17.85Z" fill="black"/>
</svg>
