<svg width="22" height="22" viewBox="0 0 22 22" fill="none" xmlns="http://www.w3.org/2000/svg">
<path d="M16.4997 13.75H14.6663V15.5833H16.4997M16.4997 10.0833H14.6663V11.9167H16.4997M18.333 17.4167H10.9997V15.5833H12.833V13.75H10.9997V11.9167H12.833V10.0833H10.9997V8.25H18.333M9.16634 6.41667H7.33301V4.58333H9.16634M9.16634 10.0833H7.33301V8.25H9.16634M9.16634 13.75H7.33301V11.9167H9.16634M9.16634 17.4167H7.33301V15.5833H9.16634M5.49967 6.41667H3.66634V4.58333H5.49967M5.49967 10.0833H3.66634V8.25H5.49967M5.49967 13.75H3.66634V11.9167H5.49967M5.49967 17.4167H3.66634V15.5833H5.49967M10.9997 6.41667V2.75H1.83301V19.25H20.1663V6.41667H10.9997Z" fill="#414C4E"/>
</svg>
