<svg width="14" height="14" viewBox="0 0 14 14" fill="none" xmlns="http://www.w3.org/2000/svg">
<path d="M13.0781 8.77891L12.0547 7.90391C12.1031 7.60703 12.1281 7.30391 12.1281 7.00078C12.1281 6.69766 12.1031 6.39453 12.0547 6.09766L13.0781 5.22266C13.1553 5.15657 13.2106 5.06856 13.2365 4.97031C13.2625 4.87206 13.2579 4.76824 13.2234 4.67266L13.2094 4.63203C12.9276 3.84457 12.5057 3.11458 11.9641 2.47734L11.9359 2.44453C11.8702 2.36727 11.7827 2.31173 11.6847 2.28523C11.5868 2.25873 11.4832 2.26252 11.3875 2.29609L10.1172 2.74766C9.64844 2.36328 9.125 2.06016 8.55938 1.84766L8.31407 0.519531C8.29556 0.419597 8.24708 0.32766 8.17508 0.255934C8.10307 0.184208 8.01095 0.136089 7.91094 0.117969L7.86875 0.110156C7.05469 -0.0367187 6.19844 -0.0367187 5.38438 0.110156L5.34219 0.117969C5.24219 0.136089 5.15006 0.184208 5.07806 0.255934C5.00605 0.32766 4.95757 0.419597 4.93907 0.519531L4.69219 1.85391C4.13108 2.06646 3.60855 2.36942 3.14532 2.75078L1.86563 2.29609C1.76995 2.26225 1.66624 2.25833 1.56828 2.28484C1.47031 2.31136 1.38274 2.36705 1.31719 2.44453L1.28907 2.47734C0.748039 3.11503 0.326209 3.8449 0.0437532 4.63203L0.0296906 4.67266C-0.0406219 4.86797 0.0171907 5.08672 0.175003 5.22266L1.21094 6.10703C1.1625 6.40078 1.13907 6.70078 1.13907 6.99922C1.13907 7.29922 1.1625 7.59922 1.21094 7.89141L0.175003 8.77578C0.097809 8.84187 0.0425601 8.92988 0.0166031 9.02813C-0.00935385 9.12637 -0.00478907 9.23019 0.0296906 9.32578L0.0437532 9.36641C0.326566 10.1539 0.745316 10.8805 1.28907 11.5211L1.31719 11.5539C1.3829 11.6312 1.47048 11.6867 1.56838 11.7132C1.66629 11.7397 1.76992 11.7359 1.86563 11.7023L3.14532 11.2477C3.61094 11.6305 4.13125 11.9336 4.69219 12.1445L4.93907 13.4789C4.95757 13.5788 5.00605 13.6708 5.07806 13.7425C5.15006 13.8142 5.24219 13.8623 5.34219 13.8805L5.38438 13.8883C6.20592 14.0359 7.04721 14.0359 7.86875 13.8883L7.91094 13.8805C8.01095 13.8623 8.10307 13.8142 8.17508 13.7425C8.24708 13.6708 8.29556 13.5788 8.31407 13.4789L8.55938 12.1508C9.12477 11.9388 9.65117 11.6347 10.1172 11.2508L11.3875 11.7023C11.4832 11.7362 11.5869 11.7401 11.6849 11.7136C11.7828 11.6871 11.8704 11.6314 11.9359 11.5539L11.9641 11.5211C12.5078 10.8789 12.9266 10.1539 13.2094 9.36641L13.2234 9.32578C13.2938 9.13359 13.2359 8.91484 13.0781 8.77891ZM10.9453 6.28203C10.9844 6.51797 11.0047 6.76016 11.0047 7.00234C11.0047 7.24453 10.9844 7.48672 10.9453 7.72266L10.8422 8.34922L12.0094 9.34766C11.8324 9.7553 11.6091 10.1412 11.3438 10.4977L9.89375 9.98359L9.40313 10.3867C9.02969 10.693 8.61407 10.9336 8.16407 11.1023L7.56875 11.3258L7.28907 12.8414C6.84777 12.8914 6.40224 12.8914 5.96094 12.8414L5.68125 11.3227L5.09063 11.0961C4.64532 10.9273 4.23125 10.6867 3.86094 10.382L3.37032 9.97734L1.91094 10.4961C1.64532 10.1383 1.42344 9.75234 1.24532 9.34609L2.425 8.33828L2.32344 7.71328C2.28594 7.48047 2.26563 7.23984 2.26563 7.00234C2.26563 6.76328 2.28438 6.52422 2.32344 6.29141L2.425 5.66641L1.24532 4.65859C1.42188 4.25078 1.64532 3.86641 1.91094 3.50859L3.37032 4.02734L3.86094 3.62266C4.23125 3.31797 4.64532 3.07734 5.09063 2.90859L5.68282 2.68516L5.9625 1.16641C6.40157 1.11641 6.85 1.11641 7.29063 1.16641L7.57032 2.68203L8.16563 2.90547C8.61407 3.07422 9.03125 3.31484 9.40469 3.62109L9.89532 4.02422L11.3453 3.51016C11.6109 3.86797 11.8328 4.25391 12.0109 4.66016L10.8438 5.65859L10.9453 6.28203ZM6.62813 4.09609C5.10938 4.09609 3.87813 5.32734 3.87813 6.84609C3.87813 8.36484 5.10938 9.59609 6.62813 9.59609C8.14688 9.59609 9.37813 8.36484 9.37813 6.84609C9.37813 5.32734 8.14688 4.09609 6.62813 4.09609ZM7.86563 8.08359C7.70332 8.24637 7.51043 8.37545 7.29805 8.4634C7.08567 8.55136 6.858 8.59645 6.62813 8.59609C6.16094 8.59609 5.72188 8.41328 5.39063 8.08359C5.22785 7.92128 5.09877 7.72839 5.01082 7.51601C4.92287 7.30364 4.87777 7.07596 4.87813 6.84609C4.87813 6.37891 5.06094 5.93984 5.39063 5.60859C5.72188 5.27734 6.16094 5.09609 6.62813 5.09609C7.09532 5.09609 7.53438 5.27734 7.86563 5.60859C8.0284 5.7709 8.15748 5.9638 8.24544 6.17617C8.33339 6.38855 8.37849 6.61622 8.37813 6.84609C8.37813 7.31328 8.19532 7.75234 7.86563 8.08359Z" fill="black"/>
</svg>
