<svg width="96" height="96" viewBox="0 0 96 96" fill="none" xmlns="http://www.w3.org/2000/svg">
  <defs>
    <linearGradient id="gTop" x1="24" y1="18" x2="72" y2="42" gradientUnits="userSpaceOnUse">
      <stop stop-color="#040CAD"/>
      <stop offset="1" stop-color="#1D3CFF"/>
    </linearGradient>
    <linearGradient id="gMid" x1="22" y1="34" x2="74" y2="60" gradientUnits="userSpaceOnUse">
      <stop stop-color="#576AFF"/>
      <stop offset="1" stop-color="#2E6BFF"/>
    </linearGradient>
    <linearGradient id="gBot" x1="22" y1="52" x2="74" y2="78" gradientUnits="userSpaceOnUse">
      <stop stop-color="#AFC1FF"/>
      <stop offset="1" stop-color="#D7E2FF"/>
    </linearGradient>
    <clipPath id="hexClip">
      <path d="M48 8 L78 25.5 V60.5 L48 88 L18 60.5 V25.5 Z"/>
    </clipPath>
  </defs>
  <g clip-path="url(#hexClip)">
    <path d="M48 8 L78 25.5 V60.5 L48 88 L18 60.5 V25.5 Z" fill="white"/>
    <path
      d="M24 28
         C24 25.8 25.1 24.2 27 23.1
         L48 10.8
         L69 23.1
         C70.9 24.2 72 25.8 72 28
         V34
         C72 35.3 71.5 36.2 70.3 36.9
         L50.2 48.7
         C48.8 49.5 47.2 49.5 45.8 48.7
         L25.7 36.9
         C24.5 36.2 24 35.3 24 34
         V28Z"
      fill="url(#gTop)"
    />
    <path
      d="M22 42
         C22 40.0 23.0 38.6 24.8 37.6
         L45.9 25.4
         C47.2 24.6 48.8 24.6 50.1 25.4
         L71.2 37.6
         C73.0 38.6 74 40.0 74 42
         V48.3
         C74 49.6 73.4 50.6 72.2 51.3
         L50.4 64.0
         C49.0 64.8 47.0 64.8 45.6 64.0
         L23.8 51.3
         C22.6 50.6 22 49.6 22 48.3
         V42Z"
      fill="url(#gMid)"
      opacity="0.95"
    />
    <path
      d="M22 60
         C22 58.0 23.0 56.6 24.8 55.6
         L45.9 43.4
         C47.2 42.6 48.8 42.6 50.1 43.4
         L71.2 55.6
         C73.0 56.6 74 58.0 74 60
         V67
         C74 68.6 73.2 69.7 71.8 70.5
         L50.2 83.1
         C48.8 84.0 47.2 84.0 45.8 83.1
         L24.2 70.5
         C22.8 69.7 22 68.6 22 67
         V60Z"
      fill="url(#gBot)"
      opacity="0.95"
    />
  </g>
  <path d="M48 8 L78 25.5 V60.5 L48 88 L18 60.5 V25.5 Z" stroke="rgba(4,12,173,0.12)" stroke-width="1"/>
</svg>